<svg width="20" height="20" viewBox="0 0 20 20" fill="none" xmlns="http://www.w3.org/2000/svg">
<path fill-rule="evenodd" clip-rule="evenodd" d="M9.99935 6.4585C7.81322 6.4585 6.04102 8.2307 6.04102 10.4168C6.04102 12.603 7.81322 14.3752 9.99935 14.3752C12.1855 14.3752 13.9577 12.603 13.9577 10.4168C13.9577 8.2307 12.1855 6.4585 9.99935 6.4585ZM7.29102 10.4168C7.29102 8.92106 8.50358 7.7085 9.99935 7.7085C11.4951 7.7085 12.7077 8.92106 12.7077 10.4168C12.7077 11.9126 11.4951 13.1252 9.99935 13.1252C8.50358 13.1252 7.29102 11.9126 7.29102 10.4168Z" fill="#1C2229"/>
<path fill-rule="evenodd" clip-rule="evenodd" d="M7.70768 0.208496C6.55709 0.208496 5.62435 1.14124 5.62435 2.29183V2.44064C5.62435 2.81869 5.31788 3.12516 4.93983 3.12516C2.78657 3.12516 1.04102 4.87072 1.04102 7.02397V10.8663C1.04101 12.2024 1.04101 13.2499 1.12057 14.0867C1.20167 14.9397 1.36982 15.6381 1.74712 16.2538C2.14222 16.8985 2.6843 17.4406 3.32904 17.8357C3.94473 18.213 4.64315 18.3812 5.49611 18.4623C6.33291 18.5418 7.38036 18.5418 8.71649 18.5418H11.2822C12.6183 18.5418 13.6658 18.5418 14.5026 18.4623C15.3556 18.3812 16.054 18.213 16.6697 17.8357C17.3144 17.4406 17.8565 16.8985 18.2516 16.2538C18.6289 15.6381 18.797 14.9397 18.8781 14.0867C18.9577 13.2499 18.9577 12.2025 18.9577 10.8664V7.02397C18.9577 4.87072 17.2121 3.12516 15.0589 3.12516C14.6808 3.12516 14.3743 2.81869 14.3743 2.44064V2.29183C14.3743 1.14124 13.4416 0.208496 12.291 0.208496H7.70768ZM6.87435 2.29183C6.87435 1.83159 7.24745 1.4585 7.70768 1.4585H12.291C12.7513 1.4585 13.1243 1.83159 13.1243 2.29183V2.44064C13.1243 3.50905 13.9905 4.37516 15.0589 4.37516C16.5218 4.37516 17.7077 5.56108 17.7077 7.02397V10.8335C17.7077 12.2095 17.707 13.1977 17.6337 13.9684C17.5613 14.7299 17.4225 15.2144 17.1858 15.6007C16.8938 16.0772 16.4931 16.4779 16.0165 16.7699C15.6303 17.0066 15.1457 17.1455 14.3843 17.2179C13.6135 17.2912 12.6254 17.2918 11.2493 17.2918H8.74935C7.37332 17.2918 6.38518 17.2912 5.61442 17.2179C4.85296 17.1455 4.36844 17.0066 3.98217 16.7699C3.50562 16.4779 3.10495 16.0772 2.81292 15.6007C2.57621 15.2144 2.43736 14.7299 2.36496 13.9684C2.29168 13.1977 2.29102 12.2095 2.29102 10.8335V7.02397C2.29102 5.56108 3.47693 4.37516 4.93983 4.37516C6.00823 4.37516 6.87435 3.50905 6.87435 2.44064V2.29183Z" fill="#1C2229"/>
<path d="M14.166 7.0835C14.166 7.54373 14.5391 7.91683 14.9993 7.91683C15.4596 7.91683 15.8327 7.54373 15.8327 7.0835C15.8327 6.62326 15.4596 6.25016 14.9993 6.25016C14.5391 6.25016 14.166 6.62326 14.166 7.0835Z" fill="#1C2229"/>
</svg>
