<svg width="49" height="40" viewBox="0 0 49 40" fill="none" xmlns="http://www.w3.org/2000/svg">
<mask id="mask0_2130_37729" style="mask-type:luminance" maskUnits="userSpaceOnUse" x="0" y="0" width="49" height="40">
<path d="M0 0H49V40H0V0Z" fill="white"/>
</mask>
<g mask="url(#mask0_2130_37729)">
<path d="M48.9342 5.69963C48.8967 5.06096 48.6256 4.16052 47.5643 3.48262C46.4398 2.75648 45.7619 2.73011 42.6646 3.14431C42.469 3.04462 42.161 2.84781 41.999 2.7404C41.7608 2.59119 41.5568 2.46448 41.4329 2.4021C39.9255 1.65731 38.5188 1.10354 37.129 0.707988C35.4596 0.230756 33.7062 -0.0117188 31.9122 -0.0117188C24.99 -0.0117188 18.5377 3.60868 14.341 6.64702C12.4392 8.02533 10.6658 9.50204 9.0668 11.0347C7.58913 12.4535 6.4323 13.8473 5.52853 15.2944C3.93789 17.8536 2.86046 20.5536 2.23492 23.5457C2.0193 24.5786 1.88567 25.6469 1.84436 26.7107C1.81079 27.2625 1.81079 27.8221 1.81079 28.3797C1.81079 28.4942 1.82757 28.6949 1.85275 28.9251C1.86954 29.0705 1.89407 29.3361 1.90246 29.5181C0.995458 30.8 -0.59131 33.4479 0.304071 35.2192C0.561647 35.7144 1.22786 36.548 2.85981 36.548C3.08446 36.548 3.34269 36.5229 3.60026 36.4901C3.78424 36.6875 3.95854 36.8882 4.20837 37.0355C5.19929 37.6304 6.28124 38.0125 7.38062 38.3398C10.3695 39.2313 14.6069 39.9471 16.805 39.949C24.3728 39.9716 29.76 37.9829 34.4138 34.1136C40.2037 29.2982 44.6503 24.1676 47.2603 17.0612C48.0168 15.0044 48.5675 12.1718 48.6669 9.98121C48.7095 9.16631 48.6133 8.38615 48.4139 7.64586C48.7341 7.02841 48.9794 6.37367 48.9342 5.69963ZM4.14188 30.7897C4.56601 30.2211 4.48725 29.4602 4.37105 28.3701C4.37105 27.8632 4.37492 27.3513 4.4001 26.831C4.44206 25.8939 4.55826 24.9645 4.74483 24.0647C5.3071 21.3685 6.27737 18.9406 7.70533 16.638C8.49226 15.3755 9.52062 14.1457 10.844 12.8742C12.3598 11.4206 14.0408 10.023 15.847 8.71288C19.7358 5.89644 25.6801 2.54166 31.9122 2.54166C33.4648 2.54166 34.9806 2.74876 36.4292 3.16168C37.6609 3.51414 38.9275 4.01388 40.2883 4.68599L40.6078 4.88666C41.3909 5.39348 42.0739 5.64367 42.7646 5.70799C44.0183 5.53819 44.813 5.43271 45.392 5.43271C45.8291 5.43271 45.9698 5.49446 46.3778 5.85527C46.4152 6.42576 45.4288 7.66644 44.525 8.42474L44.0389 8.83122L44.068 9.46152C44.2423 13.3521 40.9203 16.6888 37.3039 19.7143C29.3688 26.3589 22.1631 30.2693 14.636 32.0201C12.6509 32.4806 10.7065 32.7874 8.77114 32.9366L8.27148 32.9141C7.53878 32.8658 6.83964 32.8761 6.36452 33.0613C4.40849 33.8344 3.37561 33.9965 2.85981 33.9965C2.75136 33.9965 2.6726 33.9901 2.61838 33.9901C2.60998 33.9901 2.60159 33.9901 2.5932 33.9901C2.58481 33.4254 3.29233 31.9422 4.14188 30.7897ZM40.6575 19.7342C40.8325 19.1496 41.1069 18.619 41.4238 18.1102C42.0481 17.6131 42.6646 17.0638 43.2559 16.483C42.9557 17.1011 42.6852 17.7333 42.3566 18.3392C41.3612 20.1639 40.1714 21.8541 38.4678 23.1173C39.4342 22.1423 40.2418 21.0675 40.6575 19.7342ZM17.6294 38.1533C21.3917 37.0728 24.9519 35.4057 28.7232 34.3644C25.2217 36.1852 21.6512 37.8176 17.6294 38.1533ZM35.8372 25.8212C34.0555 28.008 31.8793 29.7156 29.3978 31.0463C27.2294 32.2117 24.9229 33.0703 22.6415 33.9682C20.7687 34.7066 18.8198 35.196 16.8218 35.4449C15.6566 35.5922 14.4656 35.5884 13.3416 36.0045C11.6684 36.6329 9.88278 36.6078 8.14237 36.8445C8.24243 36.7699 8.34572 36.7178 8.45481 36.6972C9.68653 36.4502 10.8272 35.9755 11.9266 35.3632C12.4095 35.0918 12.942 34.9651 13.4998 34.9529C14.9981 34.9156 16.4642 34.6217 17.9044 34.2248C19.628 33.7528 21.3349 33.172 23.1121 32.9166C24.2153 32.761 25.3225 32.6471 26.3715 32.2464C28.037 31.6142 29.4779 30.6064 30.8671 29.5342C32.5901 28.2157 34.2349 26.7949 36.0373 25.5466C35.9708 25.636 35.9127 25.7337 35.8372 25.8212ZM43.3192 21.018C41.1404 24.2634 37.7564 26.2084 36.0999 29.7522C36.7281 25.5446 43.3192 21.018 45.1616 17.0612C45.5411 17.2934 43.4141 20.8752 43.3192 21.018Z" fill="#8A6240"/>
</g>
<path d="M27.9614 8.26634C29.9349 9.15777 31.8657 9.11468 32.2905 8.16279C32.7069 7.20833 31.4493 5.7136 29.4804 4.82024C27.5115 3.92237 25.5754 3.96804 25.1545 4.92379C24.7304 5.87375 25.988 7.37298 27.9614 8.26634Z" fill="#8A6240"/>
<path d="M32.0998 9.49806C31.2011 10.2274 31.7002 12.3724 33.2024 14.2884C34.7142 16.2057 36.6619 17.1685 37.5611 16.4404C38.4604 15.7085 37.9607 13.5687 36.454 11.6482C34.9473 9.73024 32.999 8.76806 32.0998 9.49806Z" fill="#8A6240"/>
<path d="M9.16162 22.8502C10.9808 23.6754 12.7754 23.6342 13.1576 22.7543C13.5494 21.8738 12.3829 20.4878 10.5605 19.6607C8.74072 18.8329 6.95125 18.8741 6.56391 19.7578C6.17271 20.6357 7.33793 22.0231 9.16162 22.8502Z" fill="#8A6240"/>
<path d="M12.9829 23.9897C12.1547 24.6663 12.6124 26.6485 14.0068 28.4192C15.4063 30.1943 17.2042 31.0838 18.0363 30.4117C18.8691 29.7383 18.4114 27.7529 17.0131 25.9764C15.618 24.2058 13.8157 23.3137 12.9829 23.9897Z" fill="#8A6240"/>
<path d="M11.9512 30.5549C12.784 29.8763 12.3263 27.8979 10.9274 26.1234C9.53299 24.3483 7.7306 23.4581 6.90236 24.1348C6.07347 24.8107 6.52729 26.7936 7.92169 28.5643C9.31995 30.3368 11.1185 31.2244 11.9512 30.5549Z" fill="#8A6240"/>
<path d="M33.7685 6.43599C35.4547 7.20522 37.1111 7.16405 37.4778 6.34916C37.8316 5.53233 36.7535 4.2505 35.0673 3.48513C33.3811 2.71589 31.7201 2.75706 31.3573 3.5726C31.0004 4.38749 32.0784 5.66933 33.7685 6.43599Z" fill="#8A6240"/>
<path d="M38.2613 11.5993C39.5518 13.242 41.225 14.0652 41.9958 13.4407C42.7653 12.8168 42.3406 10.9819 41.0417 9.3347C39.7512 7.69461 38.0819 6.86943 37.3124 7.4978C36.5454 8.12168 36.9663 9.95535 38.2613 11.5993Z" fill="#8A6240"/>
<path d="M22.8121 11.2608C24.8565 12.1902 26.8629 12.1446 27.2954 11.1547C27.7376 10.1681 26.4304 8.61484 24.382 7.68353C22.3421 6.7548 20.3364 6.80239 19.8987 7.79545C19.4616 8.78271 20.7689 10.334 22.8121 11.2608Z" fill="#8A6240"/>
<path d="M27.1032 12.5451C26.171 13.2976 26.6868 15.523 28.2478 17.511C29.8171 19.4997 31.8364 20.4973 32.7724 19.7422C33.7014 18.9813 33.1895 16.7624 31.6156 14.7718C30.0585 12.785 28.0315 11.7862 27.1032 12.5451Z" fill="#8A6240"/>
<path d="M17.9579 15.0451C20.056 15.9996 22.116 15.9514 22.5659 14.9371C23.0152 13.9209 21.6712 12.3265 19.577 11.372C17.4744 10.4182 15.4145 10.4664 14.9645 11.4839C14.5191 12.4988 15.8554 14.0939 17.9579 15.0451Z" fill="#8A6240"/>
<path d="M22.3663 16.3639C21.4083 17.137 21.937 19.4221 23.5438 21.4674C25.1506 23.5056 27.228 24.5321 28.1853 23.7565C29.1427 22.9789 28.6146 20.6975 27.0078 18.6503C25.4004 16.6083 23.3237 15.5818 22.3663 16.3639Z" fill="#8A6240"/>
<path d="M12.8961 18.6261C14.9903 19.5825 17.0548 19.5291 17.5041 18.5167C17.9456 17.5005 16.6055 15.9061 14.5074 14.9561C12.4139 14.0004 10.3481 14.048 9.90336 15.0642C9.45341 16.0798 10.7942 17.6748 12.8961 18.6261Z" fill="#8A6240"/>
<path d="M17.2999 19.9436C16.3464 20.7193 16.8706 23.0045 18.4773 25.0472C20.0841 27.086 22.1615 28.1145 23.1189 27.3362C24.0762 26.5606 23.5482 24.276 21.9414 22.2288C20.3346 20.1906 18.2566 19.1616 17.2999 19.9436Z" fill="#8A6240"/>
</svg>
