<svg width="18" height="18" viewBox="0 0 18 18" fill="none" xmlns="http://www.w3.org/2000/svg">
<g clip-path="url(#clip0_2111_33472)">
<path d="M17.4157 4.30725L15.1574 1.25625C14.8797 0.868001 14.5135 0.551527 14.0891 0.333058C13.6646 0.114588 13.1943 0.000415291 12.7169 1.32179e-06H5.28443C4.8094 -0.000444551 4.34106 0.111919 3.91795 0.327844C3.49483 0.543769 3.12904 0.857083 2.85068 1.242L0.551926 4.31475C0.177649 4.84252 -0.0156397 5.47731 0.000989842 6.1241C0.0176194 6.7709 0.243273 7.39491 0.644176 7.90275L7.23818 17.1487C7.44832 17.4148 7.71615 17.6297 8.02147 17.7772C8.32679 17.9247 8.66161 18.0008 9.00068 18C9.34556 17.9993 9.68569 17.9195 9.99488 17.7667C10.3041 17.6139 10.5741 17.3923 10.7842 17.1188L17.3257 7.9755C17.7445 7.46024 17.9806 6.82057 17.9969 6.15674C18.0132 5.49291 17.8088 4.84243 17.4157 4.30725V4.30725ZM13.9447 2.13825L16.2082 5.19675C16.2202 5.21325 16.2232 5.23275 16.2352 5.25H12.5662L11.4952 1.5H12.7169C12.9576 1.50075 13.1947 1.55907 13.4083 1.6701C13.6219 1.78113 13.8058 1.94165 13.9447 2.13825V2.13825ZM9.00068 14.3385L6.97568 6.75H11.0257L9.00068 14.3385ZM6.99518 5.25L8.06618 1.5H9.93518L11.0062 5.25H6.99518ZM4.06343 2.12775C4.20259 1.93379 4.38589 1.77571 4.59819 1.66656C4.81049 1.55741 5.04571 1.50032 5.28443 1.5H6.50618L5.43518 5.25H1.73918C1.74968 5.2335 1.75268 5.21325 1.76468 5.1975L4.06343 2.12775ZM1.83668 6.99375C1.78252 6.91726 1.73605 6.83562 1.69793 6.75H5.42468L7.67018 15.1725L1.83668 6.99375ZM10.3289 15.18L12.5789 6.75H16.3184C16.2701 6.86195 16.2089 6.96791 16.1362 7.06575L10.3289 15.18Z" fill="white"/>
</g>
<defs>
<clipPath id="clip0_2111_33472">
<rect width="18" height="18" fill="white"/>
</clipPath>
</defs>
</svg>
