<svg width="18" height="18" viewBox="0 0 18 18" fill="none" xmlns="http://www.w3.org/2000/svg">
<g clip-path="url(#clip0_2111_33467)">
<path d="M13.9358 1.60567L9.237 0.0389189C9.08316 -0.0123219 8.91685 -0.0123219 8.763 0.0389189L4.06425 1.60567C3.31718 1.85383 2.66731 2.33111 2.20698 2.9697C1.74666 3.60829 1.49928 4.37571 1.5 5.16292V9.00067C1.5 14.6729 8.4 17.8057 8.6955 17.9362C8.79137 17.9788 8.8951 18.0008 9 18.0008C9.1049 18.0008 9.20864 17.9788 9.3045 17.9362C9.6 17.8057 16.5 14.6729 16.5 9.00067V5.16292C16.5007 4.37571 16.2533 3.60829 15.793 2.9697C15.3327 2.33111 14.6828 1.85383 13.9358 1.60567V1.60567ZM15 9.00067C15 13.0919 10.2608 15.7754 9 16.4174C7.73775 15.7777 3 13.1024 3 9.00067V5.16292C3.00005 4.69063 3.14871 4.23032 3.42493 3.84723C3.70114 3.46413 4.09091 3.17766 4.539 3.02842L9 1.54117L13.461 3.02842C13.9091 3.17766 14.2989 3.46413 14.5751 3.84723C14.8513 4.23032 15 4.69063 15 5.16292V9.00067Z" fill="white"/>
<path d="M11.4751 6.2253L8.33409 9.37531L6.65109 7.6203C6.58355 7.54646 6.50191 7.48687 6.41098 7.44506C6.32006 7.40325 6.22169 7.38006 6.12166 7.37686C6.02164 7.37366 5.92198 7.39051 5.82857 7.42641C5.73515 7.46232 5.64987 7.51656 5.57774 7.58593C5.50561 7.65531 5.4481 7.73842 5.40859 7.83036C5.36908 7.92231 5.34836 8.02123 5.34767 8.12131C5.34698 8.22138 5.36633 8.32058 5.40457 8.41307C5.44281 8.50555 5.49917 8.58944 5.57034 8.65981L7.29984 10.4598C7.42882 10.5991 7.58472 10.7108 7.7581 10.7882C7.93149 10.8655 8.11876 10.9069 8.30859 10.9098H8.33334C8.51938 10.9104 8.70369 10.8741 8.87557 10.8029C9.04745 10.7317 9.20348 10.6271 9.33459 10.4951L12.5386 7.29105C12.6086 7.22122 12.6641 7.13829 12.702 7.047C12.74 6.9557 12.7595 6.85783 12.7596 6.75897C12.7597 6.66011 12.7404 6.5622 12.7026 6.47083C12.6649 6.37945 12.6095 6.2964 12.5397 6.22643C12.4699 6.15645 12.387 6.10091 12.2957 6.06298C12.2044 6.02505 12.1065 6.00548 12.0076 6.00537C11.9088 6.00527 11.8109 6.02464 11.7195 6.06237C11.6281 6.10011 11.5451 6.15547 11.4751 6.2253V6.2253Z" fill="white"/>
</g>
<defs>
<clipPath id="clip0_2111_33467">
<rect width="18" height="18" fill="white"/>
</clipPath>
</defs>
</svg>
