<svg xmlns="http://www.w3.org/2000/svg" width="20" height="20" viewBox="0 0 20 20" fill="none" id="icon-smartphone">
  <path d="M4.96783 18.6884L4.8505 19.4292H4.8505L4.96783 18.6884ZM0.811558 14.5322L1.55232 14.4148L0.811558 14.5322ZM18.6884 14.5322L19.4292 14.6495V14.6495L18.6884 14.5322ZM14.5322 18.6884L14.6495 19.4292H14.6495L14.5322 18.6884ZM18.35 8.29957C18.1013 7.96837 17.6311 7.90156 17.2999 8.15032C16.9687 8.39909 16.9019 8.86924 17.1507 9.20043L18.35 8.29957ZM2.34931 9.20043C2.59808 8.86924 2.53126 8.39909 2.20007 8.15032C1.86888 7.90156 1.39873 7.96838 1.14996 8.29957L2.34931 9.20043ZM10.5 0.75C10.5 0.335786 10.1642 0 9.75 0C9.33579 0 9 0.335786 9 0.75H10.5ZM6.33768 10.284C6.08033 9.95946 5.6086 9.90497 5.28403 10.1623C4.95946 10.4197 4.90497 10.8914 5.16232 11.216L6.33768 10.284ZM7.14785 12.513L6.56016 12.9789L7.14785 12.513ZM12.3522 12.513L11.7645 12.047L12.3522 12.513ZM14.3377 11.216C14.595 10.8914 14.5405 10.4197 14.216 10.1623C13.8914 9.90497 13.4197 9.95946 13.1623 10.284L14.3377 11.216ZM9.49933 14.7301L9.38133 15.4708L9.38133 15.4708L9.49933 14.7301ZM10.0007 14.7301L10.1187 15.4708L10.1187 15.4708L10.0007 14.7301ZM18 11.75V12.75H19.5V11.75H18ZM12.75 18H6.75V19.5H12.75V18ZM1.5 12.75V11.75H0V12.75H1.5ZM6.75 18C5.79233 18 5.40082 17.9977 5.08515 17.9477L4.8505 19.4292C5.31216 19.5023 5.84965 19.5 6.75 19.5V18ZM0 12.75C0 13.6503 -0.00232762 14.1878 0.0707921 14.6495L1.55232 14.4148C1.50233 14.0992 1.5 13.7077 1.5 12.75H0ZM5.08515 17.9477C3.26661 17.6596 1.84035 16.2334 1.55232 14.4148L0.0707921 14.6495C0.460478 17.1099 2.39012 19.0395 4.8505 19.4292L5.08515 17.9477ZM18 12.75C18 13.7077 17.9977 14.0992 17.9477 14.4148L19.4292 14.6495C19.5023 14.1878 19.5 13.6503 19.5 12.75H18ZM12.75 19.5C13.6503 19.5 14.1878 19.5023 14.6495 19.4292L14.4148 17.9477C14.0992 17.9977 13.7077 18 12.75 18V19.5ZM17.9477 14.4148C17.6596 16.2334 16.2334 17.6596 14.4148 17.9477L14.6495 19.4292C17.1099 19.0395 19.0395 17.1099 19.4292 14.6495L17.9477 14.4148ZM19.5 11.75C19.5 10.4564 19.0719 9.26065 18.35 8.29957L17.1507 9.20043C17.6842 9.91067 18 10.7924 18 11.75H19.5ZM1.5 11.75C1.5 10.7924 1.81583 9.91067 2.34931 9.20043L1.14996 8.29957C0.428064 9.26065 0 10.4564 0 11.75H1.5ZM9 0.75V13.75H10.5V0.75H9ZM5.16232 11.216L6.56016 12.9789L7.73553 12.047L6.33768 10.284L5.16232 11.216ZM12.9398 12.9789L14.3377 11.216L13.1623 10.284L11.7645 12.047L12.9398 12.9789ZM6.56016 12.9789C7.10616 13.6676 7.55475 14.2352 7.95551 14.6375C8.35962 15.0432 8.80816 15.3794 9.38133 15.4708L9.61734 13.9895C9.51116 13.9725 9.34132 13.9032 9.01822 13.5789C8.69177 13.2512 8.30429 12.7643 7.73553 12.047L6.56016 12.9789ZM11.7645 12.047C11.1957 12.7643 10.8082 13.2512 10.4818 13.5789C10.1587 13.9032 9.98884 13.9725 9.88266 13.9895L10.1187 15.4708C10.6918 15.3794 11.1404 15.0432 11.5445 14.6375C11.9453 14.2352 12.3938 13.6675 12.9398 12.9789L11.7645 12.047ZM9.38133 15.4708C9.50344 15.4902 9.62661 15.5 9.75 15.5V14C9.70594 14 9.66168 13.9965 9.61734 13.9895L9.38133 15.4708ZM9.75 15.5C9.87339 15.5 9.99656 15.4902 10.1187 15.4708L9.88266 13.9895C9.83832 13.9965 9.79406 14 9.75 14V15.5ZM9 13.75V14.75H10.5V13.75H9Z" fill="#2D264B"/>
</svg>