<svg width="40" height="39" viewBox="0 0 40 39" fill="none" xmlns="http://www.w3.org/2000/svg">
<mask id="mask0_2130_37748" style="mask-type:luminance" maskUnits="userSpaceOnUse" x="0" y="0" width="40" height="39">
<path d="M0 0H40V38.1H0V0Z" fill="white"/>
</mask>
<g mask="url(#mask0_2130_37748)">
<path d="M35.8547 19.5543C34.775 19.2476 33.5636 19.1877 32.2547 19.3767C29.361 19.7929 26.561 19.0991 24.5688 17.472C23.4828 16.5851 22.5933 15.5262 21.9256 14.3246C21.6084 13.7543 21.5469 13.0783 21.7563 12.4689C22.4417 10.5059 25.0745 10.858 26.6146 11.272C28.0328 11.6319 29.4266 12.1101 30.9506 12.0127C34.5896 11.8043 37.5323 7.81319 36.2756 4.29444C35.3276 1.42308 32.1948 -0.254522 29.1386 0.477249C24.1485 1.58506 18.0552 5.19392 13.0526 1.13558C9.60055 -2.18369 -0.137468 2.33975 2.24795 7.41058C2.81149 8.38819 3.85784 9.04235 4.35472 9.99444C4.54326 10.3752 4.41982 10.7106 4.3292 10.8767C4.1417 11.22 3.77607 11.4611 3.37451 11.5064C2.00628 11.6585 0.746907 12.6746 0.240136 14.0345C-0.911948 17.0351 2.40837 19.6267 5.32712 18.5236C6.77972 18.1267 8.61878 18.922 8.25368 20.8231C8.08389 21.5877 7.33441 22.0778 6.51878 21.9679C2.20941 21.4658 -0.828614 27.2647 3.16253 30.1319C4.50576 31.1663 6.3516 31.3658 7.97972 30.6533C10.5995 29.4116 14.5901 31.3309 15.1969 34.1799C16.8459 39.5877 25.1959 39.595 25.6011 32.9788C25.7625 31.1647 24.8214 29.3965 23.1448 28.3637C22.6011 28.0288 22.2761 27.2887 22.3724 26.6054C22.4235 26.2444 22.6407 25.6022 23.5256 25.3554C24.223 25.159 24.7771 25.1746 24.9677 25.3981C27.8453 28.7496 33.1735 31.546 36.7511 30.2184C38.2297 29.6705 39.9933 28.1793 39.9933 24.1861C39.9933 21.8127 37.848 20.1215 35.8547 19.5543ZM27.574 3.31006C27.8261 2.47256 29.0818 2.82673 28.8558 3.67465C28.437 5.14808 28.9615 6.8684 30.1313 7.85746C30.412 8.09548 30.4474 8.51579 30.2099 8.79652C29.9709 9.07829 29.5506 9.11215 29.2709 8.87517C27.6896 7.53871 27.0073 5.30173 27.574 3.31006ZM21.9969 4.69131C22.3927 3.91006 23.5646 4.47412 23.1985 5.26996C22.9 5.89027 23.0448 6.72048 23.5365 7.20173C23.7995 7.45954 23.8037 7.8809 23.5469 8.14444C23.2891 8.40694 22.8672 8.41215 22.6042 8.15433C21.7084 7.27725 21.4532 5.821 21.9969 4.69131ZM5.82139 16.0476C5.52764 16.8726 4.28076 16.4314 4.56305 15.6101C4.69222 15.2382 4.45784 14.7325 4.09014 14.5897C3.74743 14.4564 3.57764 14.0705 3.70993 13.7272C3.8443 13.384 4.22868 13.2127 4.57347 13.347C5.61774 13.7528 6.18909 14.9892 5.82139 16.0476ZM3.29014 6.16683C2.43545 3.0236 10.4433 -0.473793 12.1907 2.32465C12.6474 3.3835 11.3287 5.35173 8.70628 6.48402C6.08389 7.61579 3.74795 7.22569 3.29014 6.16683ZM9.10316 27.2991C8.97399 28.1679 7.68337 27.9986 7.78076 27.1288C7.87243 26.4153 7.45941 25.6304 6.81878 25.3033C6.49066 25.1351 6.36097 24.7335 6.52868 24.4059C6.69639 24.0788 7.09951 23.9491 7.42555 24.1158C8.57868 24.7054 9.26774 26.0142 9.10316 27.2991ZM8.62555 13.3392C8.18545 14.0913 7.03753 13.4262 7.47243 12.671C9.54587 9.08662 13.712 6.92412 17.8365 7.28402C18.7026 7.37308 18.6006 8.67725 17.7193 8.61162C14.175 8.30173 10.4183 10.2424 8.62555 13.3392ZM11.1594 19.9403C10.8464 19.7476 10.7485 19.3366 10.9412 19.0236C12.6224 16.2913 16.0047 14.7601 19.1683 15.2981C19.5308 15.3595 19.775 15.7038 19.7141 16.0663C19.6521 16.4299 19.3084 16.6752 18.9443 16.6121C16.3037 16.1637 13.4802 17.4424 12.0766 19.7226C11.8828 20.0382 11.4677 20.1314 11.1594 19.9403ZM13.162 27.6809C12.9349 28.5288 11.6693 28.208 11.8693 27.358C12.6974 24.0418 16.4703 21.7746 19.7886 22.5986C20.6339 22.8278 20.323 24.083 19.4672 23.8929C16.8235 23.2319 13.8219 25.0413 13.162 27.6809ZM22.5068 30.8882C22.473 31.2538 22.1594 31.5252 21.7823 31.4913C20.4688 31.3653 19.0917 32.0272 18.3563 33.122C17.8646 33.8439 16.7677 33.1033 17.2495 32.3788C18.2641 30.8679 20.0828 30.0022 21.9032 30.1637C22.2698 30.197 22.5401 30.5215 22.5068 30.8882ZM28.6177 22.4455C28.2276 22.5861 27.9933 23.2246 28.1995 23.584C28.3709 23.9095 28.2464 24.3132 27.9209 24.4851C26.8151 24.9059 26.6058 23.2278 26.9313 22.4705C27.1745 21.6845 28.4183 20.5413 28.9896 21.5793C29.1261 21.921 28.9594 22.309 28.6177 22.4455ZM33.7089 22.7236C32.9 23.7174 32.624 25.1507 33.0052 26.3746C33.1146 26.7257 32.9188 27.0996 32.5672 27.2095C32.2245 27.3179 31.8412 27.1262 31.7323 26.7715C31.2141 25.1069 31.5756 23.234 32.6756 21.883C32.9078 21.597 33.3266 21.5533 33.6125 21.7866C33.8985 22.0189 33.9412 22.4387 33.7089 22.7236Z" fill="#8A6240"/>
</g>
</svg>
