<svg width="108" height="96" viewBox="0 0 108 96" fill="none" xmlns="http://www.w3.org/2000/svg">
<path d="M95.3572 39.5844C91.7941 25.877 71.9739 15.7742 47.9545 15.7742C36.1467 15.7742 24.9208 18.2379 16.1968 22.7202C16.9384 19.4909 18.5331 16.8154 20.9989 14.6211C27.5584 8.78884 38.9381 7.25436 49.106 7.25436C60.3199 7.25436 70.0627 9.12177 70.2496 9.15808C72.206 9.54549 74.1081 8.26221 74.494 6.29493C74.8798 4.32462 73.6017 2.41787 71.6423 2.03047C70.0597 1.71873 32.68 -5.45429 16.2119 9.17624C10.9577 13.8432 8.35917 20.0992 8.47674 27.7928C3.21646 32.2479 0.26226 37.5656 0.00301449 43.2344C0 43.2889 0 43.3464 0 43.4009V43.637C0.0211014 44.5026 0.0542608 45.2713 0.105507 45.9765V45.9826C0.105507 45.9826 0.108522 46.0098 0.108522 46.025C0.94052 59.4963 6.23094 72.0324 15.0091 81.3301C23.9441 90.7912 35.6433 96 47.9545 96C61.5588 96 74.4578 89.5625 83.5555 78.2884C90.0759 77.0566 95.7763 74.6414 100.117 71.2667C105.2 67.311 108 62.2233 108 56.9388C108 50.0322 103.415 43.7732 95.3572 39.5844ZM84.698 62.3716C84.6016 62.6016 84.5021 62.8316 84.3996 63.0616V63.0677C84.3182 63.2463 84.2398 63.4248 84.1584 63.6034C84.077 63.785 83.9926 63.9666 83.9052 64.1482C83.5405 64.926 83.1576 65.6887 82.7507 66.4423C82.6512 66.633 82.5487 66.8237 82.4402 67.0113C82.407 67.0719 82.3739 67.1324 82.3377 67.1929C82.2533 67.3533 82.1628 67.5107 82.0694 67.6681C81.6805 68.3491 81.2736 69.0149 80.8485 69.6717C80.7641 69.8049 80.6797 69.935 80.5923 70.0652C80.4898 70.2225 80.3843 70.3799 80.2788 70.5373C80.1341 70.7552 79.9864 70.9701 79.8357 71.185C79.7904 71.2486 79.7482 71.3091 79.703 71.3696C79.5764 71.5512 79.4468 71.7328 79.3141 71.9114C79.1122 72.1898 78.9072 72.4683 78.6962 72.7437C70.9429 82.907 59.7381 88.7362 47.9545 88.7362C31.9385 88.7362 17.8789 78.013 11.2561 62.3988C11.5425 62.5986 11.8349 62.7953 12.1333 62.992C12.2599 63.0768 12.3895 63.1585 12.5192 63.2402C13.0919 63.6094 13.6828 63.9666 14.2887 64.3146C14.3912 64.3752 14.4937 64.4357 14.5992 64.4932C15.8713 65.2105 17.2097 65.8885 18.6114 66.518C18.8767 66.6391 19.145 66.7571 19.4163 66.8721C19.7087 66.9992 20.0071 67.1233 20.3086 67.2474C20.5799 67.3594 20.8542 67.4683 21.1315 67.5773C21.3968 67.6802 21.6621 67.7831 21.9334 67.883C22.048 67.9284 22.1625 67.9708 22.2801 68.0131C22.5423 68.11 22.8076 68.2038 23.0729 68.2976C23.3864 68.4096 23.7059 68.5186 24.0224 68.6245C24.3058 68.7183 24.5922 68.8122 24.8786 68.9029C25.2554 69.021 25.6352 69.139 26.018 69.254C26.2682 69.3267 26.5184 69.3993 26.7686 69.4719C26.841 69.4931 26.9163 69.5143 26.9917 69.5355C27.2932 69.6202 27.5976 69.702 27.9051 69.7837C27.9413 69.7928 27.9805 69.8049 28.0197 69.814C28.2729 69.8805 28.5291 69.9471 28.7853 70.0107C28.9662 70.0591 29.1471 70.1015 29.331 70.1438C29.557 70.2014 29.7861 70.2558 30.0152 70.3073C30.4312 70.4041 30.8533 70.498 31.2783 70.5888C31.9053 70.7219 32.5414 70.849 33.1805 70.9671C33.4096 71.0095 33.6387 71.0518 33.8678 71.0912C34.0637 71.1275 34.2596 71.1608 34.4586 71.1941C34.7118 71.2364 34.962 71.2758 35.2182 71.3151C35.2815 71.3272 35.3479 71.3363 35.4172 71.3454C35.7217 71.3938 36.0261 71.4423 36.3336 71.4846C36.4391 71.4998 36.5446 71.5149 36.6531 71.527C36.9244 71.5663 37.1957 71.6027 37.4671 71.636C38.6306 71.7843 39.8123 71.9114 41.0121 72.0082C41.2141 72.0264 41.416 72.0415 41.621 72.0536C41.8381 72.0748 42.0581 72.0899 42.2782 72.1021C42.453 72.1142 42.6279 72.1263 42.8027 72.1353C43.1011 72.1565 43.4026 72.1717 43.704 72.1838C43.7824 72.1898 43.8608 72.1959 43.9422 72.1959C44.322 72.2171 44.7048 72.2322 45.0877 72.2413C45.151 72.2473 45.2143 72.2504 45.2806 72.2504C45.6303 72.2625 45.9769 72.2715 46.3296 72.2746C46.8692 72.2867 47.4088 72.2927 47.9545 72.2927C48.7081 72.2927 49.3652 72.2836 49.95 72.2685C61.4171 71.9991 72.3145 69.369 80.6345 64.8655C80.9118 64.7142 81.1861 64.5628 81.4575 64.4085C81.7288 64.2541 81.994 64.0998 82.2563 63.9424H82.2593C82.5216 63.785 82.7808 63.6276 83.037 63.4672C83.2933 63.3068 83.5465 63.1433 83.7967 62.9799C84.0409 62.8195 84.279 62.6591 84.5172 62.4957C84.5292 62.4896 84.5413 62.4805 84.5503 62.4745C84.5774 62.4563 84.6016 62.4382 84.6257 62.42C84.6528 62.4018 84.6769 62.3837 84.701 62.3655C84.701 62.3655 84.7 62.3675 84.698 62.3716ZM88.6078 45.3107C88.6048 45.3349 88.6018 45.3561 88.5988 45.3803C88.5988 45.3894 88.5958 45.3954 88.5958 45.4015C88.5777 45.5316 88.5596 45.6618 88.5355 45.7889C88.5174 45.8978 88.4993 46.0038 88.4752 46.1097C88.4691 46.1551 88.4571 46.2005 88.448 46.2459C88.4269 46.3367 88.4058 46.4305 88.3817 46.5244C88.2823 46.936 88.1587 47.3446 88.0079 47.7501C87.9687 47.8591 87.9265 47.968 87.8813 48.077C87.824 48.2253 87.7607 48.3736 87.6944 48.5189C87.1729 49.6902 86.4464 50.8403 85.53 51.9541C85.4155 52.0933 85.2979 52.2325 85.1773 52.3717C85.0417 52.5261 84.903 52.6835 84.7583 52.8378C84.5322 53.083 84.2941 53.3281 84.0469 53.5702C84.0348 53.5793 84.0228 53.5914 84.0137 53.6005C83.8751 53.7367 83.7334 53.8699 83.5887 54.003C83.019 54.5327 82.407 55.0472 81.7499 55.5527C81.6052 55.6616 81.4605 55.7736 81.3097 55.8826C80.0828 56.7905 78.7082 57.6561 77.201 58.4733C69.8668 62.4442 60.13 64.7626 49.7662 65.0077C49.2326 65.0229 48.6387 65.0289 47.9545 65.0289C46.9235 65.0289 45.8956 65.0077 44.8797 64.9654C44.3521 64.9442 43.8276 64.9169 43.3061 64.8836C42.4681 64.8322 41.6361 64.7656 40.8131 64.6869C40.373 64.6445 39.9329 64.5991 39.4988 64.5477C38.495 64.4357 37.5032 64.2995 36.5265 64.1452C36.2884 64.1088 36.0502 64.0695 35.8151 64.0301C35.1338 63.9151 34.4586 63.791 33.7894 63.6609C33.2498 63.5519 32.7162 63.44 32.1857 63.3189C31.5677 63.1797 30.9558 63.0344 30.3529 62.88C30.0876 62.8134 29.8253 62.7438 29.5661 62.6742C26.7264 61.9085 24.0677 60.9763 21.644 59.9019C21.4029 59.7959 21.1677 59.687 20.9326 59.578C20.7005 59.4691 20.4653 59.3601 20.2362 59.2481C19.8926 59.0817 19.552 58.9122 19.2174 58.7366C19.1058 58.6791 18.9973 58.6216 18.8858 58.5641C18.7049 58.4703 18.527 58.3734 18.3522 58.2766C18.096 58.1343 17.8458 57.9921 17.5956 57.8468C17.3845 57.7258 17.1796 57.6017 16.9746 57.4776C16.6671 57.293 16.3656 57.1023 16.0732 56.9116C15.9738 56.848 15.8773 56.7845 15.7778 56.7179C15.6814 56.6543 15.5849 56.5908 15.4914 56.5242C15.3015 56.3971 15.1116 56.2669 14.9277 56.1307C14.7408 56.0006 14.56 55.8674 14.3791 55.7312C14.1108 55.5315 13.8486 55.3287 13.5923 55.1199C13.4205 54.9837 13.2547 54.8444 13.0889 54.7022C13.0075 54.6326 12.9261 54.563 12.8447 54.4934C12.7633 54.4237 12.685 54.3511 12.6066 54.2815C12.4679 54.1604 12.3292 54.0333 12.1966 53.9062C12.1001 53.8184 12.0067 53.7276 11.9133 53.6368C11.7836 53.5127 11.657 53.3856 11.5304 53.2585C11.3676 53.092 11.2109 52.9256 11.0602 52.7591C10.9908 52.6835 10.9245 52.6108 10.8582 52.5352C10.5899 52.2386 10.3397 51.9359 10.1015 51.6302C10.0413 51.5545 9.98398 51.4758 9.9267 51.4002C9.80914 51.2489 9.6976 51.0945 9.58908 50.9371C9.53482 50.8615 9.48056 50.7828 9.42931 50.7041C8.81134 49.7931 8.31697 48.8578 7.95523 47.8984C7.9281 47.8288 7.90398 47.7592 7.87685 47.6896C7.72613 47.2659 7.59952 46.8391 7.50306 46.4093C7.48196 46.3246 7.46387 46.2429 7.4488 46.1581C7.39453 45.9069 7.35233 45.6497 7.31917 45.3954C7.27998 44.8325 7.24984 44.212 7.23477 43.5038V43.4917C7.37343 40.8798 8.50688 38.3132 10.5417 35.9131C11.1807 36.8816 11.9705 37.7472 12.911 38.5039C19.778 44.0365 32.5414 42.1449 46.0553 40.1413C52.6962 39.1576 58.9664 38.2315 63.7895 38.3647C66.4935 38.4373 69.8366 38.9004 70.3913 40.6709C71.175 43.18 70.5058 44.4814 69.8366 45.3379C65.1099 51.3639 45.2866 52.3687 33.9009 51.5909C31.9023 51.4486 30.181 52.9619 30.0454 54.9625C29.9067 56.9631 31.4109 58.6973 33.4035 58.8365C33.6055 58.8486 36.5808 59.0514 40.8915 59.0514C43.6859 59.0514 47.0411 58.9667 50.562 58.6912C63.461 57.6925 71.6242 54.793 75.5159 49.8354C77.2553 47.62 78.9735 43.8579 77.2914 38.4918C75.8204 33.7915 71.3439 31.3067 63.9885 31.1039C58.5353 30.9495 51.9607 31.9241 45.0003 32.9562C34.6847 34.4846 21.843 36.3853 17.4388 32.8381C17.0258 32.5052 16.5194 31.9998 16.1697 31.1009C16.9625 30.5863 17.8005 30.09 18.6898 29.6087C26.5034 25.3715 36.8973 23.038 47.9545 23.038C68.8237 23.038 87.0523 31.803 88.5867 42.5898C88.5988 42.6685 88.6108 42.7502 88.6199 42.8319C88.6199 42.844 88.6229 42.8592 88.6259 42.8743C88.6319 42.9257 88.638 42.9802 88.641 43.0347C88.644 43.0498 88.644 43.0619 88.647 43.0771C88.653 43.1376 88.6591 43.2012 88.6621 43.2647C88.6651 43.2859 88.6681 43.3101 88.6681 43.3313C88.6681 43.3797 88.6771 43.4342 88.6802 43.4826V43.5068C88.6832 43.5341 88.6832 43.5643 88.6862 43.5946C88.7013 43.8852 88.7495 44.1666 88.8279 44.433C88.7224 44.7084 88.647 45.002 88.6078 45.3107ZM89.5996 68.9816C89.7021 68.7819 89.8016 68.5852 89.901 68.3854C90.0668 68.0525 90.2296 67.7165 90.3894 67.3806C90.513 67.1142 90.6366 66.8479 90.7602 66.5785C90.7933 66.5029 90.8265 66.4302 90.8596 66.3576C90.9862 66.0761 91.1098 65.7946 91.2304 65.5132C91.3661 65.1924 91.5017 64.8715 91.6344 64.5477C91.764 64.2269 91.8936 63.903 92.0172 63.5792C92.1438 63.2523 92.2644 62.9254 92.385 62.5986C92.5055 62.2717 92.6201 61.9418 92.7346 61.6119C92.7377 61.6058 92.7377 61.5998 92.7407 61.5968C93.0723 60.6313 93.3767 59.6567 93.6571 58.6701C93.7596 58.3099 93.859 57.9467 93.9555 57.5865C94.2238 56.5666 94.465 55.5375 94.682 54.4994C94.685 54.4722 94.6911 54.4449 94.6971 54.4207C94.7604 54.106 94.8207 53.7942 94.881 53.4795C94.884 53.4613 94.887 53.4431 94.89 53.425C94.9563 53.086 95.0166 52.747 95.0739 52.405V52.399C95.1342 52.0479 95.1884 51.6968 95.2427 51.3427C95.2909 51.0188 95.3392 50.695 95.3814 50.3681C95.3874 50.3197 95.3934 50.2713 95.3995 50.2228C95.4417 49.9111 95.4808 49.5994 95.517 49.2876C95.5261 49.1908 95.5381 49.0939 95.5502 48.9971C95.5743 48.7701 95.5984 48.5401 95.6225 48.31C98.9083 50.8524 100.765 53.8911 100.765 56.9388C100.765 61.6755 96.3822 66.1699 89.5996 68.9816Z" fill="#A87748"/>
</svg>
