<svg width="20" height="20" viewBox="0 0 20 20" fill="none" xmlns="http://www.w3.org/2000/svg">
<path fill-rule="evenodd" clip-rule="evenodd" d="M10.0007 1.0415C7.81452 1.0415 6.04232 2.81371 6.04232 4.99984V8.33317C6.04232 10.5193 7.81452 12.2915 10.0007 12.2915C12.1868 12.2915 13.959 10.5193 13.959 8.33317V4.99984C13.959 2.81371 12.1868 1.0415 10.0007 1.0415ZM7.29232 4.99984C7.29232 3.50407 8.50488 2.2915 10.0007 2.2915C11.4964 2.2915 12.709 3.50407 12.709 4.99984V8.33317C12.709 9.82894 11.4964 11.0415 10.0007 11.0415C8.50488 11.0415 7.29232 9.82894 7.29232 8.33317V4.99984Z" fill="#1C2229"/>
<path d="M3.95898 8.33317C3.95898 7.98799 3.67916 7.70817 3.33398 7.70817C2.98881 7.70817 2.70898 7.98799 2.70898 8.33317C2.70898 12.1497 5.64115 15.2814 9.37565 15.5984V17.4607C9.19529 17.4844 9.01594 17.5184 8.8385 17.5628L8.1824 17.7268C7.84753 17.8105 7.64393 18.1499 7.72765 18.4848C7.81136 18.8196 8.1507 19.0232 8.48557 18.9395L9.14167 18.7755C9.42366 18.705 9.71215 18.6697 10.0007 18.6697C10.2891 18.6697 10.5776 18.705 10.8596 18.7755L11.5157 18.9395C11.8506 19.0232 12.1899 18.8196 12.2737 18.4848C12.3574 18.1499 12.1538 17.8105 11.8189 17.7268L11.1628 17.5628C10.9854 17.5184 10.806 17.4844 10.6257 17.4607V15.5984C14.3602 15.2814 17.2923 12.1497 17.2923 8.33317C17.2923 7.98799 17.0125 7.70817 16.6673 7.70817C16.3221 7.70817 16.0423 7.98799 16.0423 8.33317C16.0423 11.6699 13.3374 14.3748 10.0007 14.3748C6.66393 14.3748 3.95898 11.6699 3.95898 8.33317Z" fill="#1C2229"/>
</svg>
