<svg width="20" height="20" viewBox="0 0 20 20" fill="none" xmlns="http://www.w3.org/2000/svg">
<path fill-rule="evenodd" clip-rule="evenodd" d="M9.16602 0.208496C4.6787 0.208496 1.04102 3.84618 1.04102 8.3335C1.04102 12.8208 4.6787 16.4585 9.16602 16.4585C13.6533 16.4585 17.291 12.8208 17.291 8.3335C17.291 3.84618 13.6533 0.208496 9.16602 0.208496ZM2.29102 8.3335C2.29102 4.53654 5.36906 1.4585 9.16602 1.4585C12.963 1.4585 16.041 4.53654 16.041 8.3335C16.041 12.1305 12.963 15.2085 9.16602 15.2085C5.36906 15.2085 2.29102 12.1305 2.29102 8.3335Z" fill="#1C2229"/>
<path d="M16.2747 14.5583C16.0306 14.3142 15.6349 14.3142 15.3908 14.5583C15.1467 14.8024 15.1467 15.1981 15.3908 15.4422L18.724 18.7755C18.9681 19.0195 19.3638 19.0196 19.6079 18.7755C19.852 18.5314 19.852 18.1357 19.6079 17.8916L16.2747 14.5583Z" fill="#1C2229"/>
</svg>
