<svg width="109" height="31" viewBox="0 0 109 31" fill="none" xmlns="http://www.w3.org/2000/svg">
<path d="M9.37611 30.3361C6.53878 30.3361 4.26678 29.8027 2.56011 28.7361C0.853443 27.6481 0.000109434 25.9947 0.000109434 23.7761C0.000109434 22.6027 0.202776 21.7067 0.608109 21.0881C1.01344 20.4694 1.61078 20.1601 2.40011 20.1601C2.97611 20.1601 3.44544 20.3094 3.80811 20.6081C4.17078 20.9067 4.35211 21.2907 4.35211 21.7601C4.35211 22.1867 4.32011 22.5601 4.25611 22.8801C4.25611 22.9654 4.23478 23.1147 4.19211 23.3281C4.17078 23.5414 4.16011 23.7654 4.16011 24.0001C4.16011 24.9601 4.64011 25.6747 5.60011 26.1441C6.58144 26.6134 7.94678 26.8481 9.69611 26.8481C11.5094 26.8481 12.9281 26.5281 13.9521 25.8881C14.9761 25.2267 15.4881 24.3094 15.4881 23.1361C15.4881 22.4107 15.2534 21.7921 14.7841 21.2801C14.3148 20.7467 13.7281 20.3094 13.0241 19.9681C12.3201 19.6054 11.3281 19.1681 10.0481 18.6561C8.40544 18.0161 7.06144 17.4081 6.01611 16.8321C4.99211 16.2561 4.10678 15.4774 3.36011 14.4961C2.63478 13.4934 2.27211 12.2561 2.27211 10.7841C2.27211 9.24808 2.67744 7.88274 3.48811 6.68808C4.32011 5.49341 5.50411 4.56541 7.04011 3.90408C8.59744 3.24274 10.4214 2.91208 12.5121 2.91208C14.0694 2.91208 15.4988 3.14674 16.8001 3.61608C18.1014 4.06408 19.1361 4.75741 19.9041 5.69608C20.6934 6.63474 21.0881 7.78674 21.0881 9.15208C21.0881 10.4961 20.8854 11.5094 20.4801 12.1921C20.0748 12.8747 19.4774 13.2161 18.6881 13.2161C18.1334 13.2161 17.6641 13.0454 17.2801 12.7041C16.9174 12.3627 16.7361 11.9574 16.7361 11.4881C16.7361 11.0827 16.7681 10.7094 16.8321 10.3681C16.8961 9.72808 16.9281 9.32274 16.9281 9.15208C16.9281 8.25608 16.4908 7.57341 15.6161 7.10408C14.7414 6.63474 13.6534 6.40008 12.3521 6.40008C10.5174 6.40008 9.10944 6.74141 8.12811 7.42408C7.16811 8.08541 6.68811 9.02408 6.68811 10.2401C6.68811 11.0507 6.93344 11.7441 7.42411 12.3201C7.93611 12.8961 8.56544 13.3761 9.31211 13.7601C10.0588 14.1441 11.1041 14.6027 12.4481 15.1361C14.0694 15.7974 15.3708 16.3947 16.3521 16.9281C17.3334 17.4614 18.1654 18.1867 18.8481 19.1041C19.5521 20.0214 19.9041 21.1521 19.9041 22.4961C19.9041 25.0134 18.9441 26.9547 17.0241 28.3201C15.1254 29.6641 12.5761 30.3361 9.37611 30.3361ZM36.5676 22.9441C36.8449 22.9441 37.0583 23.0721 37.2076 23.3281C37.3783 23.5841 37.4636 23.9361 37.4636 24.3841C37.4636 25.2374 37.2609 25.8987 36.8556 26.3681C36.0663 27.3281 34.9463 28.2134 33.4956 29.0241C32.0663 29.8347 30.5303 30.2401 28.8876 30.2401C26.6476 30.2401 24.9089 29.6321 23.6716 28.4161C22.4343 27.2001 21.8156 25.5361 21.8156 23.4241C21.8156 21.9521 22.1249 20.5867 22.7436 19.3281C23.3623 18.0481 24.2156 17.0347 25.3036 16.2881C26.4129 15.5414 27.6609 15.1681 29.0476 15.1681C30.2849 15.1681 31.2769 15.5414 32.0236 16.2881C32.7703 17.0134 33.1436 18.0054 33.1436 19.2641C33.1436 20.7361 32.6103 22.0054 31.5436 23.0721C30.4983 24.1174 28.7169 24.9494 26.1996 25.5681C26.7329 26.5494 27.7463 27.0401 29.2396 27.0401C30.1996 27.0401 31.2876 26.7094 32.5036 26.0481C33.7409 25.3654 34.8076 24.4801 35.7036 23.3921C35.9596 23.0934 36.2476 22.9441 36.5676 22.9441ZM28.5036 18.3041C27.7143 18.3041 27.0423 18.7627 26.4876 19.6801C25.9543 20.5974 25.6876 21.7067 25.6876 23.0081V23.0721C26.9463 22.7734 27.9383 22.3254 28.6636 21.7281C29.3889 21.1307 29.7516 20.4374 29.7516 19.6481C29.7516 19.2427 29.6343 18.9227 29.3996 18.6881C29.1863 18.4321 28.8876 18.3041 28.5036 18.3041ZM52.5379 22.9441C52.8152 22.9441 53.0285 23.0721 53.1779 23.3281C53.3485 23.5841 53.4339 23.9361 53.4339 24.3841C53.4339 25.2374 53.2312 25.8987 52.8259 26.3681C51.9512 27.4347 50.9912 28.3521 49.9459 29.1201C48.9005 29.8667 47.8659 30.2401 46.8419 30.2401C45.2205 30.2401 43.9832 29.2907 43.1299 27.3921C42.2339 28.5227 41.4445 29.2801 40.7619 29.6641C40.1005 30.0481 39.3219 30.2401 38.4259 30.2401C37.1245 30.2401 36.0472 29.7601 35.1939 28.8001C34.3619 27.8187 33.9459 26.5494 33.9459 24.9921C33.9459 23.2854 34.3085 21.7067 35.0339 20.2561C35.7592 18.7841 36.7512 17.5894 38.0099 16.6721C39.2899 15.7334 40.7192 15.1787 42.2979 15.0081C42.7032 10.8694 43.4712 7.33874 44.6019 4.41608C45.7539 1.47208 47.2579 7.62939e-05 49.1139 7.62939e-05C50.0312 7.62939e-05 50.7885 0.416077 51.3859 1.24808C52.0045 2.08008 52.3139 3.33874 52.3139 5.02408C52.3139 7.41341 51.7272 10.2081 50.5539 13.4081C49.3805 16.6081 47.8125 19.8934 45.8499 23.2641C45.9352 24.5014 46.1165 25.3867 46.3939 25.9201C46.6925 26.4534 47.0659 26.7201 47.5139 26.7201C48.0899 26.7201 48.6765 26.4641 49.2739 25.9521C49.8712 25.4401 50.6712 24.5867 51.6739 23.3921C51.9299 23.0934 52.2179 22.9441 52.5379 22.9441ZM48.7619 3.13608C48.3565 3.13608 47.9512 3.86141 47.5459 5.31208C47.1405 6.74141 46.7885 8.61874 46.4899 10.9441C46.2125 13.2694 46.0099 15.7014 45.8819 18.2401C48.2712 13.0347 49.4659 8.85341 49.4659 5.69608C49.4659 4.88541 49.3912 4.25608 49.2419 3.80808C49.1139 3.36008 48.9539 3.13608 48.7619 3.13608ZM39.5459 27.0081C39.9512 27.0081 40.3565 26.8481 40.7619 26.5281C41.1672 26.1867 41.6792 25.5681 42.2979 24.6721C42.0845 23.5201 41.9779 22.2294 41.9779 20.8001C41.9779 20.2881 41.9992 19.4561 42.0419 18.3041C40.8685 18.6667 39.8872 19.4561 39.0979 20.6721C38.3299 21.8667 37.9459 23.2001 37.9459 24.6721C37.9459 26.2294 38.4792 27.0081 39.5459 27.0081ZM53.7546 30.2401C52.7946 30.2401 52.0053 29.8027 51.3866 28.9281C50.7893 28.0321 50.4906 26.9227 50.4906 25.6001C50.4906 24.0001 50.5973 22.5387 50.8106 21.2161C51.0239 19.8721 51.3759 18.4534 51.8666 16.9601C52.0799 16.3201 52.3786 15.8614 52.7626 15.5841C53.1466 15.3067 53.7546 15.1681 54.5866 15.1681C55.0559 15.1681 55.3759 15.2427 55.5466 15.3921C55.7386 15.5414 55.8346 15.7654 55.8346 16.0641C55.8346 16.2347 55.7173 16.8107 55.4826 17.7921C55.2693 18.5814 55.0986 19.2961 54.9706 19.9361C54.5439 22.1761 54.3306 23.6694 54.3306 24.4161C54.3306 24.8641 54.3839 25.1841 54.4906 25.3761C54.5973 25.5467 54.7679 25.6321 55.0026 25.6321C55.3226 25.6321 55.7173 25.3121 56.1866 24.6721C56.6773 24.0321 57.1893 23.0614 57.7226 21.7601C58.2773 20.4587 58.8106 18.8587 59.3226 16.9601C59.4933 16.3201 59.7493 15.8614 60.0906 15.5841C60.4533 15.3067 60.9866 15.1681 61.6906 15.1681C62.1813 15.1681 62.5226 15.2321 62.7146 15.3601C62.9066 15.4667 63.0026 15.6801 63.0026 16.0001C63.0026 16.5334 62.7359 17.9947 62.2026 20.3841C61.6053 23.1147 61.3066 24.8001 61.3066 25.4401C61.3066 25.8454 61.3919 26.1654 61.5626 26.4001C61.7333 26.6134 61.9573 26.7201 62.2346 26.7201C62.6613 26.7201 63.1626 26.4641 63.7386 25.9521C64.3359 25.4187 65.1253 24.5654 66.1066 23.3921C66.3626 23.0934 66.6506 22.9441 66.9706 22.9441C67.2479 22.9441 67.4613 23.0721 67.6106 23.3281C67.7813 23.5841 67.8666 23.9361 67.8666 24.3841C67.8666 25.2374 67.6639 25.8987 67.2586 26.3681C66.3413 27.4987 65.3493 28.4267 64.2826 29.1521C63.2373 29.8774 62.0426 30.2401 60.6986 30.2401C59.6746 30.2401 58.9173 29.8454 58.4266 29.0561C57.9573 28.2667 57.7226 27.1574 57.7226 25.7281C57.3599 27.1787 56.8159 28.2987 56.0906 29.0881C55.3653 29.8561 54.5866 30.2401 53.7546 30.2401ZM82.6919 22.9441C82.9692 22.9441 83.1825 23.0721 83.3319 23.3281C83.5025 23.5841 83.5879 23.9361 83.5879 24.3841C83.5879 25.2374 83.3852 25.8987 82.9799 26.3681C81.9985 27.4987 80.9852 28.4267 79.9399 29.1521C78.9159 29.8774 77.7425 30.2401 76.4199 30.2401C75.3319 30.2401 74.5105 29.9307 73.9559 29.3121C73.4012 28.6721 73.1239 27.7547 73.1239 26.5601C73.1239 25.9627 73.2732 24.8961 73.5719 23.3601C73.8492 22.0161 73.9879 21.0881 73.9879 20.5761C73.9879 20.2347 73.8705 20.0641 73.6359 20.0641C73.3585 20.0641 72.9639 20.4267 72.4519 21.1521C71.9399 21.8561 71.4279 22.7947 70.9159 23.9681C70.4039 25.1414 69.9879 26.3787 69.6679 27.6801C69.2625 29.3867 68.2599 30.2401 66.6599 30.2401C66.0199 30.2401 65.5932 30.0161 65.3799 29.5681C65.1879 29.0987 65.0919 28.2667 65.0919 27.0721C65.0919 26.3894 65.1025 25.8454 65.1239 25.4401L65.1559 22.8801C65.1559 19.5947 65.4865 16.1707 66.1479 12.6081C66.8305 9.04541 67.8225 6.05874 69.1239 3.64808C70.4465 1.21608 72.0252 7.62939e-05 73.8599 7.62939e-05C74.8412 7.62939e-05 75.6305 0.426743 76.2279 1.28008C76.8465 2.11208 77.1559 3.20008 77.1559 4.54408C77.1559 6.69874 76.5265 8.93874 75.2679 11.2641C74.0092 13.5681 71.9612 16.2667 69.1239 19.3601C69.0599 20.4694 69.0279 21.6107 69.0279 22.7841C69.7319 20.9707 70.5105 19.4987 71.3639 18.3681C72.2385 17.2161 73.0919 16.3947 73.9239 15.9041C74.7772 15.4134 75.5559 15.1681 76.2599 15.1681C77.6465 15.1681 78.3399 15.8614 78.3399 17.2481C78.3399 18.0801 78.1052 19.5841 77.6359 21.7601C77.2305 23.6161 77.0279 24.8427 77.0279 25.4401C77.0279 26.2934 77.3372 26.7201 77.9559 26.7201C78.3825 26.7201 78.8839 26.4641 79.4599 25.9521C80.0572 25.4187 80.8465 24.5654 81.8279 23.3921C82.0839 23.0934 82.3719 22.9441 82.6919 22.9441ZM73.1879 3.16808C72.8039 3.16808 72.3772 3.72274 71.9079 4.83208C71.4385 5.92008 70.9799 7.40274 70.5319 9.28008C70.1052 11.1361 69.7532 13.1627 69.4759 15.3601C70.7985 13.8027 71.8865 12.1067 72.7399 10.2721C73.6145 8.43741 74.0519 6.77341 74.0519 5.28008C74.0519 4.59741 73.9772 4.07474 73.8279 3.71208C73.6785 3.34941 73.4652 3.16808 73.1879 3.16808ZM84.5904 30.2401C83.2677 30.2401 82.2117 29.7601 81.4224 28.8001C80.633 27.8401 80.2384 26.5814 80.2384 25.0241C80.2384 23.3174 80.633 21.7067 81.4224 20.1921C82.2117 18.6561 83.257 17.4294 84.5584 16.5121C85.881 15.5734 87.2784 15.1041 88.7504 15.1041C89.2197 15.1041 89.529 15.2001 89.6784 15.3921C89.849 15.5627 89.9877 15.8827 90.0944 16.3521C90.5424 16.2667 91.0117 16.2241 91.5024 16.2241C92.5477 16.2241 93.0704 16.5974 93.0704 17.3441C93.0704 17.7921 92.9104 18.8587 92.5904 20.5441C92.0997 22.9974 91.8544 24.7041 91.8544 25.6641C91.8544 25.9841 91.929 26.2401 92.0784 26.4321C92.249 26.6241 92.4624 26.7201 92.7184 26.7201C93.1237 26.7201 93.6144 26.4641 94.1904 25.9521C94.7664 25.4187 95.545 24.5654 96.5264 23.3921C96.7824 23.0934 97.0704 22.9441 97.3904 22.9441C97.6677 22.9441 97.881 23.0721 98.0304 23.3281C98.201 23.5841 98.2864 23.9361 98.2864 24.3841C98.2864 25.2374 98.0837 25.8987 97.6784 26.3681C96.8037 27.4561 95.8757 28.3734 94.8944 29.1201C93.913 29.8667 92.9637 30.2401 92.0464 30.2401C91.3424 30.2401 90.6917 30.0054 90.0944 29.5361C89.5184 29.0454 89.081 28.3841 88.7824 27.5521C87.673 29.3441 86.2757 30.2401 84.5904 30.2401ZM85.7424 27.0081C86.2117 27.0081 86.6597 26.7307 87.0864 26.1761C87.513 25.6214 87.8224 24.8854 88.0144 23.9681L89.1984 18.0801C88.3024 18.1014 87.4704 18.4427 86.7024 19.1041C85.9557 19.7441 85.3584 20.5974 84.9104 21.6641C84.4624 22.7307 84.2384 23.8614 84.2384 25.0561C84.2384 25.7174 84.3664 26.2081 84.6224 26.5281C84.8997 26.8481 85.273 27.0081 85.7424 27.0081ZM97.6176 30.2401C96.8069 30.2401 96.2309 29.8134 95.8896 28.9601C95.5696 28.1067 95.4096 26.7414 95.4096 24.8641C95.4096 22.0907 95.8043 19.4561 96.5936 16.9601C96.7856 16.3414 97.0949 15.8934 97.5216 15.6161C97.9696 15.3174 98.5883 15.1681 99.3776 15.1681C99.8043 15.1681 100.103 15.2214 100.274 15.3281C100.444 15.4347 100.53 15.6374 100.53 15.9361C100.53 16.2774 100.37 17.0454 100.05 18.2401C99.8363 19.0934 99.6656 19.8401 99.5376 20.4801C99.4096 21.1201 99.3029 21.9094 99.2176 22.8481C99.9216 21.0134 100.711 19.5201 101.586 18.3681C102.46 17.2161 103.314 16.3947 104.146 15.9041C104.999 15.4134 105.778 15.1681 106.482 15.1681C107.164 15.1681 107.676 15.3494 108.018 15.7121C108.38 16.0534 108.562 16.5654 108.562 17.2481C108.562 17.8027 108.444 18.8481 108.21 20.3841C107.996 21.6854 107.826 22.9227 107.698 24.0961C107.57 25.2481 107.506 26.5387 107.506 27.9681C107.506 28.7787 107.335 29.3654 106.994 29.7281C106.674 30.0694 106.14 30.2401 105.394 30.2401C104.69 30.2401 104.178 30.0587 103.858 29.6961C103.538 29.3334 103.378 28.7894 103.378 28.0641C103.378 27.2107 103.527 25.8027 103.826 23.8401C104.082 22.1334 104.21 21.0454 104.21 20.5761C104.21 20.2347 104.092 20.0641 103.858 20.0641C103.58 20.0641 103.186 20.4267 102.674 21.1521C102.183 21.8561 101.671 22.7947 101.138 23.9681C100.626 25.1414 100.21 26.3787 99.8896 27.6801C99.6549 28.6827 99.3776 29.3654 99.0576 29.7281C98.7589 30.0694 98.2789 30.2401 97.6176 30.2401Z" fill="#8A6240"/>
</svg>
